# xmcd
#
# Track frame offsets: 
#        150
#        9885
#        20504
#        30828
#        43257
#        54724
#        66396
#        77556
#        89039
#        100215
#        110973
#        121762
#        133466
#        144336
#        156857
#        168550
#        180619
#        190827
#        201999
#        213397
#        224498
#        235815
#
# Disc length: 3291 seconds
#
# Revision: 0
# Processed by: cddbd v1.5.1PL2 Copyright (c) Steve Scherf et al.
# Submitted via: ExactAudioCopy v0.95a5
#
DISCID=440cd916
DTITLE=Lightnin' Hopkins - The Complete Alladin Recordings
DYEAR=1991
DGENRE=Blues
TTITLE0=Lightnin' Boogie
TTITLE1=Baby You're Not Going To Make A Fool Out Of Me
TTITLE2=Daddy Will Be Home One Day
TTITLE3=Moonrise Blues
TTITLE4=Howling Wolf
TTITLE5=Morning Blues
TTITLE6=Have To Let You Go
TTITLE7=Mama's Baby Child
TTITLE8=Mistreated Blues
TTITLE9=My California
TTITLE10=Honey Babe (Steiner/Webster)
TTITLE11=So Long
TTITLE12=See See Rider
TTITLE13=Unpredictable Woman
TTITLE14=I Just Don't Care
TTITLE15=Drinkin' Woman
TTITLE16=Abilene
TTITLE17=Shotgun
TTITLE18=Rollin' And Rollin'
TTITLE19=Tell It Like It Is
TTITLE20=Miss Lovetta
TTITLE21=Come Back Baby
EXTD=
EXTT0=
EXTT1=
EXTT2=
EXTT3=
EXTT4=
EXTT5=
EXTT6=
EXTT7=
EXTT8=
EXTT9=
EXTT10=
EXTT11=
EXTT12=
EXTT13=
EXTT14=
EXTT15=
EXTT16=
EXTT17=
EXTT18=
EXTT19=
EXTT20=
EXTT21=
PLAYORDER=
